HIERARCHY
ROOT hip
{
  OFFSET 6.21712 82.5421 -17.529
  CHANNELS 6 Xposition Yposition Zposition Zrotation Xrotation Yrotation
  JOINT abdomen
  {
    OFFSET 0 20.6881 -0.73152
    CHANNELS 3 Zrotation Xrotation Yrotation
    JOINT chest
    {
      OFFSET 0 11.7043 -0.48768
      CHANNELS 3 Zrotation Xrotation Yrotation
      JOINT neck
      {
        OFFSET 0 22.1894 -2.19456
        CHANNELS 3 Zrotation Xrotation Yrotation
        JOINT head
        {
          OFFSET -0.24384 7.07133 1.2192
          CHANNELS 3 Zrotation Xrotation Yrotation
          JOINT leftEye
          {
            OFFSET 4.14528 8.04674 8.04672
            CHANNELS 3 Zrotation Xrotation Yrotation
            End Site
            {
              OFFSET 1 0 0
            }
          }
          JOINT rightEye
          {
            OFFSET -3.6576 8.04674 8.04672
            CHANNELS 3 Zrotation Xrotation Yrotation
            End Site
            {
              OFFSET 1 0 0
            }
          }
        }
      }
      JOINT rCollar
      {
        OFFSET -2.68224 19.2634 -4.8768
        CHANNELS 3 Zrotation Xrotation Yrotation
        JOINT rShldr
        {
          OFFSET -8.77824 -1.95073 1.46304
          CHANNELS 3 Zrotation Xrotation Yrotation
          JOINT rForeArm
          {
            OFFSET -28.1742 -1.7115 0.48768
            CHANNELS 3 Zrotation Xrotation Yrotation
            JOINT rHand
            {
              OFFSET -22.5879 0.773209 7.07136
              CHANNELS 3 Zrotation Xrotation Yrotation
              JOINT rThumb1
              {
                OFFSET -1.2192 -0.487915 3.41376
                CHANNELS 3 Zrotation Xrotation Yrotation
                JOINT rThumb2
                {
                  OFFSET -3.37035 -0.52449 3.41376
                  CHANNELS 3 Zrotation Xrotation Yrotation
                  End Site
                  {
                    OFFSET -1.78271 -1.18214 1.43049
                  }
                }
              }
              JOINT rIndex1
              {
                OFFSET -7.75947 0.938293 5.60832
                CHANNELS 3 Zrotation Xrotation Yrotation
                JOINT rIndex2
                {
                  OFFSET -2.54057 -0.884171 1.56538
                  CHANNELS 3 Zrotation Xrotation Yrotation
                  End Site
                  {
                    OFFSET -1.62519 -0.234802 1.16502
                  }
                }
              }
              JOINT rMid1
              {
                OFFSET -8.24714 1.18213 3.41376
                CHANNELS 3 Zrotation Xrotation Yrotation
                JOINT rMid2
                {
                  OFFSET -3.10165 -0.590103 1.0647
                  CHANNELS 3 Zrotation Xrotation Yrotation
                  End Site
                  {
                    OFFSET -2.48547 -0.328903 0.83742
                  }
                }
              }
              JOINT rRing1
              {
                OFFSET -8.82822 0.546677 1.51678
                CHANNELS 3 Zrotation Xrotation Yrotation
                JOINT rRing2
                {
                  OFFSET -2.60934 -0.819778 -0.0198488
                  CHANNELS 3 Zrotation Xrotation Yrotation
                  End Site
                  {
                    OFFSET -2.33842 -0.294052 0.168128
                  }
                }
              }
              JOINT rPinky1
              {
                OFFSET -8.27202 -0.0477905 -0.4584
                CHANNELS 3 Zrotation Xrotation Yrotation
                JOINT rPinky2
                {
                  OFFSET -1.82734 -0.647385 -0.700984
                  CHANNELS 3 Zrotation Xrotation Yrotation
                  End Site
                  {
                    OFFSET -1.69225 -0.51767 -0.607171
                  }
                }
              }
            }
          }
        }
      }
      JOINT lCollar
      {
        OFFSET 2.68224 19.2634 -4.8768
        CHANNELS 3 Zrotation Xrotation Yrotation
        JOINT lShldr
        {
          OFFSET 8.77824 -1.95073 1.46304
          CHANNELS 3 Zrotation Xrotation Yrotation
          JOINT lForeArm
          {
            OFFSET 28.1742 -1.7115 0.48768
            CHANNELS 3 Zrotation Xrotation Yrotation
            JOINT lHand
            {
              OFFSET 22.5879 0.773209 7.07136
              CHANNELS 3 Zrotation Xrotation Yrotation
              JOINT lThumb1
              {
                OFFSET 1.2192 -0.487915 3.41376
                CHANNELS 3 Zrotation Xrotation Yrotation
                JOINT lThumb2
                {
                  OFFSET 3.37035 -0.52449 3.41376
                  CHANNELS 3 Zrotation Xrotation Yrotation
                  End Site
                  {
                    OFFSET 1.78271 -1.18214 1.43049
                  }
                }
              }
              JOINT lIndex1
              {
                OFFSET 7.75947 0.938293 5.60832
                CHANNELS 3 Zrotation Xrotation Yrotation
                JOINT lIndex2
                {
                  OFFSET 2.54057 -0.884171 1.56538
                  CHANNELS 3 Zrotation Xrotation Yrotation
                  End Site
                  {
                    OFFSET 1.62519 -0.234802 1.16502
                  }
                }
              }
              JOINT lMid1
              {
                OFFSET 8.24714 1.18213 3.41376
                CHANNELS 3 Zrotation Xrotation Yrotation
                JOINT lMid2
                {
                  OFFSET 3.10165 -0.590103 1.0647
                  CHANNELS 3 Zrotation Xrotation Yrotation
                  End Site
                  {
                    OFFSET 2.48547 -0.328903 0.83742
                  }
                }
              }
              JOINT lRing1
              {
                OFFSET 8.82822 0.546677 1.51678
                CHANNELS 3 Zrotation Xrotation Yrotation
                JOINT lRing2
                {
                  OFFSET 2.60934 -0.819778 -0.0198488
                  CHANNELS 3 Zrotation Xrotation Yrotation
                  End Site
                  {
                    OFFSET 2.33842 -0.294052 0.168128
                  }
                }
              }
              JOINT lPinky1
              {
                OFFSET 8.27202 -0.0477905 -0.4584
                CHANNELS 3 Zrotation Xrotation Yrotation
                JOINT lPinky2
                {
                  OFFSET 1.82734 -0.647385 -0.700984
                  CHANNELS 3 Zrotation Xrotation Yrotation
                  End Site
                  {
                    OFFSET 1.69225 -0.51767 -0.607171
                  }
                }
              }
            }
          }
        }
      }
    }
  }
  JOINT rButtock
  {
    OFFSET -8.77824 4.35084 1.2192
    CHANNELS 3 Zrotation Xrotation Yrotation
    JOINT rThigh
    {
      OFFSET 0 -1.70687 -2.19456
      CHANNELS 3 Zrotation Xrotation Yrotation
      JOINT rShin
      {
        OFFSET 0 -36.8199 0.73152
        CHANNELS 3 Zrotation Xrotation Yrotation
        JOINT rFoot
        {
          OFFSET 0.73152 -45.1104 -5.12064
          CHANNELS 3 Zrotation Xrotation Yrotation
          End Site
          {
            OFFSET -1.1221 -3.69964 12.103
          }
        }
      }
    }
  }
  JOINT lButtock
  {
    OFFSET 8.77824 4.35084 1.2192
    CHANNELS 3 Zrotation Xrotation Yrotation
    JOINT lThigh
    {
      OFFSET 0 -1.70687 -2.19456
      CHANNELS 3 Zrotation Xrotation Yrotation
      JOINT lShin
      {
        OFFSET 0 -36.8199 0.73152
        CHANNELS 3 Zrotation Xrotation Yrotation
        JOINT lFoot
        {
          OFFSET -0.73152 -45.1104 -5.12064
          CHANNELS 3 Zrotation Xrotation Yrotation
          End Site
          {
            OFFSET 1.1221 -3.69964 12.103
          }
        }
      }
    }
  }
}
MOTION
Frames:	7
Frame Time:	0.00833333
10.3781 84.1002 -42.7337 1.15514 0.00311846 -0.0216558 -1.51925 -0.00282957 -0.0413933 -0.418697 0.00102583 -0.072511 -3.54337e-014 -7.95139e-016 7.45444e-017 -1.05993e-013 3.18055e-015 1.21134e-016 -0 0 0 -0 0 0 -1.77435e-014 -8.54153e-018 1.98785e-016 -3.69469e-013 -6.95746e-016 5.96354e-016 -6.38168e-012 1.91012e-012 6.04305e-014 -7.31649e-011 -1.94287e-012 1.90833e-014 -1.72559e-010 -6.78191e-014 2.13097e-013 -2.98001e-010 -1.145e-013 3.76896e-013 -1.72551e-010 -6.40087e-014 2.09917e-013 7.73091 5.47488 0.417314 -1.72559e-010 -6.70898e-014 2.09917e-013 2.90554 0.965183 0.102902 -1.72549e-010 -6.72886e-014 2.14687e-013 10.2786 0.731801 0.0259123 -1.72559e-010 -6.83819e-014 2.25819e-013 2.22167 -0.733487 -0.20892 -1.77407e-014 -8.54153e-018 -9.93923e-017 -3.74604e-013 -6.08778e-016 -1.39149e-015 -6.40713e-012 -1.91549e-012 6.67917e-014 -7.3163e-011 1.88145e-012 2.22639e-014 -1.72601e-010 -6.89938e-014 2.16278e-013 -2.98069e-010 -1.20861e-013 3.85642e-013 -1.72608e-010 -6.59965e-014 2.25819e-013 -7.73091 5.47488 -0.417314 -1.72603e-010 -6.87795e-014 2.13097e-013 -2.90554 0.965183 -0.102902 -1.72609e-010 -6.82825e-014 2.14687e-013 -10.2786 0.731801 -0.0259123 -1.72601e-010 -6.91771e-014 2.09917e-013 -2.22167 -0.733487 0.20892 -2.03217e-016 0 -3.88251e-019 -0.64068 -1.92322 -0.00643394 -0.00925362 -2.07856 -0.0764188 -0.512001 3.99733 0.140289 2.03217e-016 0 3.88251e-019 -1.66988 -6.4978 0.154704 -0.0023096 6.20797 -0.0679741 0.534198 0.285503 -0.0665861 
9.30873 82.6048 -45.1906 0.61666 2.26717 -1.85812 -2.24921 -2.27212 -0.570069 1.49154 0.945065 -0.264549 -1.88339 0.198667 -2.81776 0.538946 -0.0598597 -5.07082 -0 0 0 -0 0 0 6.74326e-015 8.36829e-014 -1.8103e-014 21.0401 6.4837 1.16874 -3.57065 -1.51177 5.69134 0.0126531 -2.49559 -0.349532 -6.00789e-010 8.5412e-010 -5.51624e-010 -1.03645e-009 1.47612e-009 -9.55151e-010 -6.00784e-010 8.54123e-010 -5.51627e-010 7.73091 5.47488 0.417314 -6.0079e-010 8.54121e-010 -5.51625e-010 2.90554 0.965183 0.102902 -6.00782e-010 8.54121e-010 -5.51622e-010 10.2786 0.731801 0.0259123 -6.00791e-010 8.5412e-010 -5.51612e-010 2.22167 -0.733487 -0.20892 6.75048e-015 8.36814e-014 -1.83616e-014 -22.6911 -0.0798673 -0.926743 2.88996 -1.12729 -4.6956 -0.00160371 0.891576 -0.125249 -5.90024e-010 2.66234e-010 5.43532e-010 -1.01792e-009 4.6159e-010 9.4014e-010 -5.90031e-010 2.66237e-010 5.43543e-010 -7.73091 5.47488 -0.417314 -5.90026e-010 2.66234e-010 5.4353e-010 -2.90554 0.965183 -0.102902 -5.90033e-010 2.66234e-010 5.43532e-010 -10.2786 0.731801 -0.0259123 -5.90024e-010 2.66234e-010 5.43528e-010 -2.22167 -0.733487 0.20892 -2.03217e-016 0 -3.88251e-019 -1.36565 -6.04739 -0.579196 -0.00280859 4.43725 0.0490231 -0.644252 1.10503 -2.4441 2.03217e-016 0 3.88251e-019 -0.482657 -8.75483 1.08185 -0.0246889 11.0055 -0.156808 0.577876 -2.95494 1.11912 
9.29573 82.6038 -45.1943 0.207816 4.65278 -3.81039 -3.06876 -4.6741 -1.13078 3.51865 1.94583 -0.467587 -3.86048 0.404905 -5.79778 1.11323 -0.116071 -10.4315 -0 0 0 -0 0 0 3.23063e-014 1.66977e-013 -3.69274e-014 42.9877 13.3276 2.45625 -7.02038 -3.06011 11.7203 -0.00719689 -5.13241 -0.721097 -1.07559e-009 1.75609e-009 -1.09586e-009 -1.8555e-009 3.03514e-009 -1.89778e-009 -1.07559e-009 1.75609e-009 -1.09587e-009 7.73091 5.47488 0.417314 -1.07559e-009 1.75609e-009 -1.09586e-009 2.90554 0.965183 0.102902 -1.07558e-009 1.75609e-009 -1.09586e-009 10.2786 0.731801 0.0259123 -1.07559e-009 1.75609e-009 -1.09585e-009 2.22167 -0.733487 -0.20892 3.23195e-014 1.66974e-013 -3.71448e-014 -46.6812 -0.173125 -1.91033 5.74279 -2.29258 -9.66194 0.000958076 1.84287 -0.25899 -1.06263e-009 5.11063e-010 1.06214e-009 -1.83327e-009 8.8616e-010 1.83733e-009 -1.06264e-009 5.11066e-010 1.06215e-009 -7.73091 5.47488 -0.417314 -1.06263e-009 5.11062e-010 1.06214e-009 -2.90554 0.965183 -0.102902 -1.06264e-009 5.11063e-010 1.06214e-009 -10.2786 0.731801 -0.0259123 -1.06263e-009 5.11062e-010 1.06213e-009 -2.22167 -0.733487 0.20892 -2.03217e-016 0 -3.88251e-019 -2.22478 -10.4073 -1.19583 -0.0274172 11.3284 0.184944 -1.06764 -1.94383 -5.17884 2.03217e-016 0 3.88251e-019 0.85143 -11.1355 2.07645 -0.0314698 16.0752 -0.255161 0.770694 -6.375 2.38458 
9.30133 82.6022 -45.1975 -0.023043 6.7671 -5.56558 -3.83552 -6.80829 -1.63763 5.33103 2.83299 -0.649312 -5.5918 0.59024 -8.45367 1.58547 -0.173968 -15.2125 -0 0 0 -0 0 0 5.57167e-014 2.51066e-013 -5.47065e-014 62.2865 19.4177 3.69417 -9.82358 -4.35663 17.119 -0.0540497 -7.48566 -1.05661 -1.45725e-009 2.5625e-009 -1.6553e-009 -2.51336e-009 4.42858e-009 -2.86621e-009 -1.45725e-009 2.5625e-009 -1.6553e-009 7.73091 5.47488 0.417314 -1.45725e-009 2.5625e-009 -1.65529e-009 2.90554 0.965183 0.102902 -1.45725e-009 2.5625e-009 -1.6553e-009 10.2786 0.731801 0.0259123 -1.45725e-009 2.5625e-009 -1.65529e-009 2.22167 -0.733487 -0.20892 5.57329e-014 2.51061e-013 -5.48859e-014 -68.0809 -0.239351 -2.78025 8.12099 -3.29114 -14.1078 0.00689354 2.67468 -0.37611 -1.42487e-009 7.98841e-010 1.63016e-009 -2.45761e-009 1.38501e-009 2.81965e-009 -1.42488e-009 7.98842e-010 1.63018e-009 -7.73091 5.47488 -0.417314 -1.42487e-009 7.98839e-010 1.63016e-009 -2.90554 0.965183 -0.102902 -1.42488e-009 7.9884e-010 1.63017e-009 -10.2786 0.731801 -0.0259123 -1.42487e-009 7.98839e-010 1.63016e-009 -2.22167 -0.733487 0.20892 -2.03217e-016 0 -3.88251e-019 -3.06993 -14.2901 -1.76984 -0.0782939 17.4686 0.313839 -1.69054 -4.63529 -7.63594 2.03217e-016 0 3.88251e-019 2.11662 -13.2561 2.97979 -0.0217799 20.6002 -0.348934 1.07188 -9.41988 3.53377 
9.32126 82.6055 -45.1913 -0.118659 8.23006 -6.79519 -4.38088 -8.27529 -2.00012 6.59311 3.43632 -0.777106 -6.7488 0.728669 -10.2988 1.81994 -0.240234 -18.5446 -0 0 0 -0 0 0 7.37456e-014 3.37141e-013 -6.98728e-014 75.5667 23.6555 4.62955 -11.6317 -5.19372 20.8993 -0.103364 -9.13108 -1.29438 -1.60606e-009 3.12997e-009 -2.25273e-009 -2.76825e-009 5.40804e-009 -3.89916e-009 -1.60606e-009 3.12997e-009 -2.25274e-009 7.73091 5.47488 0.417314 -1.60606e-009 3.12997e-009 -2.25273e-009 2.90554 0.965183 0.102902 -1.60606e-009 3.12997e-009 -2.25273e-009 10.2786 0.731801 0.0259123 -1.60607e-009 3.12997e-009 -2.25272e-009 2.22167 -0.733487 -0.20892 7.37575e-014 3.37136e-013 -7.00219e-014 -82.9977 -0.238305 -3.366 9.69602 -3.95874 -17.2327 0.0126372 3.20784 -0.451309 -1.5112e-009 1.19399e-009 2.32175e-009 -2.60442e-009 2.06956e-009 4.0148e-009 -1.5112e-009 1.19399e-009 2.32176e-009 -7.73091 5.47488 -0.417314 -1.5112e-009 1.19399e-009 2.32175e-009 -2.90554 0.965183 -0.102902 -1.51121e-009 1.19399e-009 2.32175e-009 -10.2786 0.731801 -0.0259123 -1.5112e-009 1.19399e-009 2.32175e-009 -2.22167 -0.733487 0.20892 -2.03217e-016 0 -3.88251e-019 -3.69942 -16.9855 -2.19666 -0.131369 21.732 0.410465 -2.26008 -6.48201 -9.36307 2.03217e-016 0 3.88251e-019 3.04959 -14.7374 3.61975 -0.00544027 23.7639 -0.419034 1.35552 -11.5422 4.35051 
9.33909 82.6073 -45.1912 -0.169005 8.79624 -7.26237 -4.56886 -8.80085 -2.15409 7.07541 3.63377 -0.828707 -7.09459 0.815023 -11.0103 1.67479 -0.344399 -19.8585 -0 0 0 -0 0 0 8.7676e-014 4.50113e-013 -8.61926e-014 80.7254 25.3253 5.0003 -12.3101 -5.50445 22.387 -0.126897 -9.79236 -1.39082 -1.38554e-009 3.41705e-009 -3.09929e-009 -2.38314e-009 5.90053e-009 -5.36076e-009 -1.38554e-009 3.41705e-009 -3.09929e-009 7.73091 5.47488 0.417314 -1.38554e-009 3.41705e-009 -3.09928e-009 2.90554 0.965183 0.102902 -1.38554e-009 3.41705e-009 -3.09929e-009 10.2786 0.731801 0.0259123 -1.38555e-009 3.41705e-009 -3.09928e-009 2.22167 -0.733487 -0.20892 8.76742e-014 4.50109e-013 -8.63153e-014 -88.8339 -0.130246 -3.5423 10.3147 -4.2245 -18.5012 0.0142487 3.3083 -0.465504 -1.1182e-009 1.93503e-009 3.42345e-009 -1.92089e-009 3.35278e-009 5.9174e-009 -1.11821e-009 1.93503e-009 3.42346e-009 -7.73091 5.47488 -0.417314 -1.1182e-009 1.93503e-009 3.42345e-009 -2.90554 0.965183 -0.102902 -1.11822e-009 1.93503e-009 3.42346e-009 -10.2786 0.731801 -0.0259123 -1.1182e-009 1.93503e-009 3.42345e-009 -2.22167 -0.733487 0.20892 -2.03217e-016 0 -3.88251e-019 -3.93698 -18.014 -2.39089 -0.156193 23.3622 0.44943 -2.50891 -7.1836 -10.0344 2.03217e-016 0 3.88251e-019 3.44946 -15.3285 3.86913 0.00321589 25.0257 -0.448121 1.48334 -12.3874 4.67199 
9.33438 82.6044 -45.2026 -0.218902 8.72743 -7.17856 -4.49237 -8.65484 -2.15714 6.99952 3.54175 -0.825777 -6.86683 0.864914 -10.9118 1.26553 -0.476415 -19.7306 -0 0 0 -0 0 0 9.85154e-014 5.81149e-013 -1.03107e-013 80.1608 25.1681 4.92557 -12.2402 -5.47293 22.2303 -0.124993 -9.75062 -1.38467 -9.03273e-010 3.50127e-009 -4.11446e-009 -1.54448e-009 6.04078e-009 -7.11242e-009 -9.03273e-010 3.50127e-009 -4.11446e-009 7.73091 5.47488 0.417314 -9.03275e-010 3.50127e-009 -4.11445e-009 2.90554 0.965183 0.102902 -9.03272e-010 3.50127e-009 -4.11446e-009 10.2786 0.731801 0.0259123 -9.03278e-010 3.50128e-009 -4.11445e-009 2.22167 -0.733487 -0.20892 9.84929e-014 5.81146e-013 -1.03207e-013 -88.1848 0.0536564 -3.42671 10.2883 -4.22066 -18.4399 0.0123748 3.1004 -0.436181 -3.87272e-010 2.91383e-009 4.80681e-009 -6.51969e-010 5.04749e-009 8.30582e-009 -3.87276e-010 2.91383e-009 4.80682e-009 -7.73091 5.47488 -0.417314 -3.87271e-010 2.91383e-009 4.8068e-009 -2.90554 0.965183 -0.102902 -3.87281e-010 2.91383e-009 4.80681e-009 -10.2786 0.731801 -0.0259123 -3.87273e-010 2.91383e-009 4.80681e-009 -2.22167 -0.733487 0.20892 -2.03217e-016 0 -3.88251e-019 -3.87329 -17.8535 -2.41044 -0.152908 23.112 0.443295 -2.47187 -7.07895 -9.94095 2.03217e-016 0 3.88251e-019 3.45094 -15.2857 3.8341 0.00204725 24.929 -0.44558 1.46845 -12.3233 4.63077 
